# Blender v2.78 (sub 0) OBJ File: 'lowpolychar.blend'
# www.blender.org
o Cube.002_Cube.004
v -0.654521 1.471049 -0.594592
v -0.654521 2.732218 -0.594592
v 0.824532 1.471049 -0.594592
v 0.824532 2.732218 -0.594592
v -0.654521 1.471049 0.462550
v -0.654521 2.732218 0.462550
v 0.824532 1.471049 0.462550
v 0.824532 2.732218 0.462550
v 0.169640 0.032479 -0.412600
v 0.169640 1.293647 -0.412600
v 0.822022 0.032479 -0.412600
v 0.822022 1.293647 -0.412600
v 0.169640 0.032479 0.298288
v 0.169640 1.293647 0.298288
v 0.822022 0.032479 0.298288
v 0.822022 1.293647 0.298288
v -0.635539 0.032479 -0.412600
v -0.635539 1.293647 -0.412600
v 0.016843 0.032479 -0.412600
v 0.016843 1.293647 -0.412600
v -0.635539 0.032479 0.298288
v -0.635539 1.293647 0.298288
v 0.016843 0.032479 0.298288
v 0.016843 1.293647 0.298288
v -0.417894 3.004185 -0.491744
v -0.417894 4.051664 -0.491744
v 0.591710 3.004185 -0.491744
v 0.591710 4.051664 -0.491744
v -0.417894 3.004185 0.347577
v -0.417894 4.051664 0.347577
v 0.591710 3.004185 0.347577
v 0.591710 4.051664 0.347577
v -1.216277 1.377658 -0.412600
v -1.216277 2.609147 -0.412600
v -0.871155 1.377658 -0.412600
v -0.871155 2.609147 -0.412600
v -1.216277 1.377658 0.298288
v -1.216277 2.609147 0.298288
v -0.871155 1.377658 0.298288
v -0.871155 2.609147 0.298288
v 1.049217 1.377658 -0.412600
v 1.049217 2.609147 -0.412600
v 1.394339 1.377658 -0.412600
v 1.394339 2.609147 -0.412600
v 1.049217 1.377658 0.298288
v 1.049217 2.609147 0.298288
v 1.394339 1.377658 0.298288
v 1.394339 2.609147 0.298288
v 0.824532 1.471049 -0.594592
v 0.824532 1.471049 -0.594592
v -0.654521 1.471049 -0.594592
v -0.654521 1.471049 -0.594592
v -0.654521 2.732218 -0.594592
v -0.654521 2.732218 -0.594592
v 0.824532 2.732218 -0.594592
v 0.824532 2.732218 -0.594592
v 0.824532 1.471049 0.462550
v 0.824532 1.471049 0.462550
v 0.824532 2.732218 0.462550
v 0.824532 2.732218 0.462550
v -0.654521 1.471049 0.462550
v -0.654521 1.471049 0.462550
v -0.654521 2.732218 0.462550
v -0.654521 2.732218 0.462550
v 0.822022 0.032479 -0.412600
v 0.822022 0.032479 -0.412600
v 0.169640 0.032479 -0.412600
v 0.169640 0.032479 -0.412600
v 0.169640 1.293647 -0.412600
v 0.169640 1.293647 -0.412600
v 0.822022 1.293647 -0.412600
v 0.822022 1.293647 -0.412600
v 0.822022 0.032479 0.298288
v 0.822022 0.032479 0.298288
v 0.822022 1.293647 0.298288
v 0.822022 1.293647 0.298288
v 0.169640 0.032479 0.298288
v 0.169640 0.032479 0.298288
v 0.169640 1.293647 0.298288
v 0.169640 1.293647 0.298288
v 0.016843 0.032479 -0.412600
v 0.016843 0.032479 -0.412600
v -0.635539 0.032479 -0.412600
v -0.635539 0.032479 -0.412600
v -0.635539 1.293647 -0.412600
v -0.635539 1.293647 -0.412600
v 0.016843 1.293647 -0.412600
v 0.016843 1.293647 -0.412600
v 0.016843 0.032479 0.298288
v 0.016843 0.032479 0.298288
v 0.016843 1.293647 0.298288
v 0.016843 1.293647 0.298288
v -0.635539 0.032479 0.298288
v -0.635539 0.032479 0.298288
v -0.635539 1.293647 0.298288
v -0.635539 1.293647 0.298288
v 0.591710 3.004185 -0.491744
v 0.591710 3.004185 -0.491744
v -0.417894 3.004185 -0.491744
v -0.417894 3.004185 -0.491744
v -0.417894 4.051664 -0.491744
v -0.417894 4.051664 -0.491744
v 0.591710 4.051664 -0.491744
v 0.591710 4.051664 -0.491744
v 0.591710 3.004185 0.347577
v 0.591710 3.004185 0.347577
v 0.591710 4.051664 0.347577
v 0.591710 4.051664 0.347577
v -0.417894 3.004185 0.347577
v -0.417894 3.004185 0.347577
v -0.417894 4.051664 0.347577
v -0.417894 4.051664 0.347577
v -0.871155 1.377658 -0.412600
v -0.871155 1.377658 -0.412600
v -1.216277 1.377658 -0.412600
v -1.216277 1.377658 -0.412600
v -1.216277 2.609147 -0.412600
v -1.216277 2.609147 -0.412600
v -0.871155 2.609147 -0.412600
v -0.871155 2.609147 -0.412600
v -0.871155 1.377658 0.298288
v -0.871155 1.377658 0.298288
v -0.871155 2.609147 0.298288
v -0.871155 2.609147 0.298288
v -1.216277 1.377658 0.298288
v -1.216277 1.377658 0.298288
v -1.216277 2.609147 0.298288
v -1.216277 2.609147 0.298288
v 1.394339 1.377658 -0.412600
v 1.394339 1.377658 -0.412600
v 1.049217 1.377658 -0.412600
v 1.049217 1.377658 -0.412600
v 1.049217 2.609147 -0.412600
v 1.049217 2.609147 -0.412600
v 1.394339 2.609147 -0.412600
v 1.394339 2.609147 -0.412600
v 1.394339 1.377658 0.298288
v 1.394339 1.377658 0.298288
v 1.394339 2.609147 0.298288
v 1.394339 2.609147 0.298288
v 1.049217 1.377658 0.298288
v 1.049217 1.377658 0.298288
v 1.049217 2.609147 0.298288
v 1.049217 2.609147 0.298288
vt 0.9441 0.0095
vt 0.7227 0.1868
vt 0.7228 0.0095
vt 0.9441 0.1869
vt 0.1268 0.5214
vt 0.2774 0.6498
vt 0.1268 0.6498
vt 0.2774 0.5214
vt 0.3850 0.6498
vt 0.2774 0.6498
vt 0.2774 0.8858
vt 0.1268 0.7574
vt 0.2774 0.7574
vt 0.0192 0.5214
vt 0.1268 0.6498
vt 0.0192 0.6498
vt 0.2774 0.6498
vt 0.1268 0.7574
vt 0.1268 0.6498
vt 0.2774 0.8858
vt 0.1268 0.9934
vt 0.1268 0.8858
vt 0.4789 0.5430
vt 0.5453 0.6714
vt 0.4789 0.6714
vt 0.5453 0.5430
vt 0.6176 0.6714
vt 0.5453 0.6714
vt 0.5453 0.7437
vt 0.4789 0.8721
vt 0.4789 0.7437
vt 0.4065 0.5430
vt 0.4789 0.6714
vt 0.4065 0.6714
vt 0.5453 0.7437
vt 0.4789 0.6714
vt 0.5453 0.6714
vt 0.5453 0.8721
vt 0.4789 0.9445
vt 0.4789 0.8721
vt 0.4789 0.5430
vt 0.5453 0.6714
vt 0.4789 0.6714
vt 0.5453 0.5430
vt 0.6176 0.6714
vt 0.5453 0.6714
vt 0.5453 0.8721
vt 0.4789 0.7437
vt 0.5453 0.7437
vt 0.4065 0.5430
vt 0.4789 0.6714
vt 0.4065 0.6714
vt 0.5453 0.6714
vt 0.4789 0.7437
vt 0.4789 0.6714
vt 0.5453 0.9445
vt 0.4789 0.8721
vt 0.5453 0.8721
vt 0.3239 0.4000
vt 0.5454 0.1868
vt 0.5453 0.4001
vt 0.9441 0.1869
vt 0.7226 0.4002
vt 0.7227 0.1868
vt 0.9440 0.4002
vt 0.7226 0.5775
vt 0.7226 0.4002
vt 0.7227 0.1868
vt 0.5453 0.4001
vt 0.5454 0.1868
vt 0.1467 0.1866
vt 0.3239 0.4000
vt 0.1466 0.4000
vt 0.8228 0.9270
vt 0.7876 0.8016
vt 0.8228 0.8016
vt 0.7152 0.6039
vt 0.7876 0.7293
vt 0.7152 0.7293
vt 0.7876 0.6039
vt 0.8228 0.7293
vt 0.7876 0.7293
vt 0.8228 0.6039
vt 0.8951 0.7293
vt 0.8228 0.7293
vt 0.7876 0.7293
vt 0.8228 0.8016
vt 0.7876 0.8016
vt 0.7876 0.9270
vt 0.8228 0.9994
vt 0.7876 0.9994
vt 0.8228 0.9270
vt 0.7876 0.8016
vt 0.8228 0.8016
vt 0.7152 0.6039
vt 0.7876 0.7293
vt 0.7152 0.7293
vt 0.7876 0.6039
vt 0.8228 0.7293
vt 0.7876 0.7293
vt 0.8228 0.6039
vt 0.8951 0.7293
vt 0.8228 0.7293
vt 0.7876 0.7293
vt 0.8228 0.8016
vt 0.7876 0.8016
vt 0.7876 0.9270
vt 0.8228 0.9994
vt 0.7876 0.9994
vt 0.2774 0.5214
vt 0.3850 0.5214
vt 0.1268 0.8858
vt 0.1268 0.5214
vt 0.2774 0.7574
vt 0.2774 0.9934
vt 0.5453 0.5430
vt 0.6176 0.5430
vt 0.5453 0.8721
vt 0.4789 0.5430
vt 0.4789 0.7437
vt 0.5453 0.9445
vt 0.5453 0.5430
vt 0.6176 0.5430
vt 0.4789 0.8721
vt 0.4789 0.5430
vt 0.5453 0.7437
vt 0.4789 0.9445
vt 0.3240 0.1867
vt 0.9440 0.4002
vt 0.9439 0.5776
vt 0.7226 0.4002
vt 0.3240 0.1867
vt 0.7876 0.9270
vt 0.7876 0.6039
vt 0.8228 0.6039
vt 0.8951 0.6039
vt 0.8228 0.7293
vt 0.8228 0.9270
vt 0.7876 0.9270
vt 0.7876 0.6039
vt 0.8228 0.6039
vt 0.8951 0.6039
vt 0.8228 0.7293
vt 0.8228 0.9270
vn 1.0000 0.0000 -0.0000
vn -0.0000 0.0000 -1.0000
vn 0.0000 0.0000 1.0000
vn -1.0000 0.0000 0.0000
vn 0.0000 -1.0000 0.0000
vn 0.0000 1.0000 0.0000
s off
f 104/1/1 105/2/1 98/3/1
f 104/1/1 107/4/1 105/2/1
f 53/5/2 49/6/2 51/7/2
f 56/8/1 57/9/1 50/10/1
f 60/11/3 61/12/3 58/13/3
f 64/14/4 52/15/4 62/16/4
f 3/17/5 5/18/5 1/19/5
f 8/20/6 2/21/6 6/22/6
f 69/23/2 65/24/2 67/25/2
f 72/26/1 73/27/1 66/28/1
f 74/29/3 79/30/3 77/31/3
f 80/32/4 68/33/4 78/34/4
f 15/35/5 9/36/5 11/37/5
f 16/38/6 10/39/6 14/40/6
f 85/41/2 81/42/2 83/43/2
f 88/44/1 89/45/1 82/46/1
f 92/47/3 93/48/3 90/49/3
f 96/50/4 84/51/4 94/52/4
f 19/53/5 21/54/5 17/55/5
f 20/56/6 22/57/6 24/58/6
f 101/59/2 97/60/2 99/61/2
f 108/62/3 109/63/3 106/64/3
f 112/65/4 100/66/4 110/67/4
f 31/68/5 25/69/5 27/70/5
f 32/71/6 26/72/6 30/73/6
f 117/74/2 113/75/2 115/76/2
f 120/77/1 121/78/1 114/79/1
f 124/80/3 125/81/3 122/82/3
f 128/83/4 116/84/4 126/85/4
f 39/86/5 33/87/5 35/88/5
f 36/89/6 38/90/6 40/91/6
f 133/92/2 129/93/2 131/94/2
f 136/95/1 137/96/1 130/97/1
f 140/98/3 141/99/3 138/100/3
f 144/101/4 132/102/4 142/103/4
f 47/104/5 41/105/5 43/106/5
f 44/107/6 46/108/6 48/109/6
f 53/5/2 55/110/2 49/6/2
f 56/8/1 59/111/1 57/9/1
f 60/11/3 63/112/3 61/12/3
f 64/14/4 54/113/4 52/15/4
f 3/17/5 7/114/5 5/18/5
f 8/20/6 4/115/6 2/21/6
f 69/23/2 71/116/2 65/24/2
f 72/26/1 75/117/1 73/27/1
f 74/29/3 76/118/3 79/30/3
f 80/32/4 70/119/4 68/33/4
f 15/35/5 13/120/5 9/36/5
f 16/38/6 12/121/6 10/39/6
f 85/41/2 87/122/2 81/42/2
f 88/44/1 91/123/1 89/45/1
f 92/47/3 95/124/3 93/48/3
f 96/50/4 86/125/4 84/51/4
f 19/53/5 23/126/5 21/54/5
f 20/56/6 18/127/6 22/57/6
f 101/59/2 103/128/2 97/60/2
f 108/62/3 111/129/3 109/63/3
f 112/65/4 102/130/4 100/66/4
f 31/68/5 29/131/5 25/69/5
f 32/71/6 28/132/6 26/72/6
f 117/74/2 119/133/2 113/75/2
f 120/77/1 123/134/1 121/78/1
f 124/80/3 127/135/3 125/81/3
f 128/83/4 118/136/4 116/84/4
f 39/86/5 37/137/5 33/87/5
f 36/89/6 34/138/6 38/90/6
f 133/92/2 135/139/2 129/93/2
f 136/95/1 139/140/1 137/96/1
f 140/98/3 143/141/3 141/99/3
f 144/101/4 134/142/4 132/102/4
f 47/104/5 45/143/5 41/105/5
f 44/107/6 42/144/6 46/108/6
